Coordinates
version=1
nRows=15
nColumns=34
inDegrees=yes

Units are S.I. units (second, meters, Newtons, ...)
If the header above contains a line with 'inDegrees', this indicates whether rotational values are in degrees (yes) or radians (no).

endheader
time	pelvis_tilt	pelvis_list	pelvis_rotation	pelvis_tx	pelvis_ty	pelvis_tz	hip_flexion_r	hip_adduction_r	hip_rotation_r	knee_angle_r	ankle_angle_r	subtalar_angle_r	mtp_angle_r	hip_flexion_l	hip_adduction_l	hip_rotation_l	knee_angle_l	ankle_angle_l	subtalar_angle_l	mtp_angle_l	lumbar_extension	lumbar_bending	lumbar_rotation	arm_flex_r	arm_add_r	arm_rot_r	elbow_flex_r	pro_sup_r	arm_flex_l	arm_add_l	arm_rot_l	elbow_flex_l	pro_sup_l
      7.45000000	      9.35292425	     -8.94675715	    -61.22506037	      2.49841701	      1.04165742	      7.43488770	    -15.18367574	     10.58990887	    -16.09930359	     29.37540042	     25.17472182	     -0.12076794	      0.00000000	    -28.08410102	      5.13146101	      2.24654720	      8.59920432	     23.51226290	      7.73520595	      0.00000000	      0.54661413	     -6.15224895	     23.62908236	     11.58284459	    -12.72835840	     32.79262939	     87.73415377	    119.43439669	      2.02251458	      6.83983826	     27.30306616	     84.06409907	    119.20734941
      7.46666670	      8.59711775	     -9.31257326	    -61.64653237	      2.49554788	      1.03998189	      7.43364333	    -13.81170887	     10.81263346	    -16.96704019	     31.85281011	     24.43609021	      0.03227619	      0.00000000	    -29.37485608	      4.40992444	      3.06398987	      6.49539891	     26.04644715	      7.76336886	      0.00000000	      0.25181783	     -5.10902900	     23.96246476	     11.91012310	    -12.43880435	     32.35067848	     86.88401270	    119.37330781	      2.03061544	      7.24450675	     27.48444148	     83.79810146	    119.18483428
      7.48333330	      7.39866587	     -9.09720785	    -62.25146740	      2.49328986	      1.03719826	      7.43571772	    -12.20223244	     11.09428990	    -17.49326063	     33.79178975	     23.35419305	      1.93560440	      0.00000000	    -30.00000025	      3.56721899	      3.79957301	      4.56415023	     27.29194923	      7.82650297	      0.00000000	      1.18797354	     -3.91077478	     24.52893507	     11.57795086	    -12.12437416	     32.24863701	     86.49976264	    119.33184013	      1.76896463	      7.53030293	     27.85509135	     83.53045489	    119.10931841
      7.50000000	      5.83146534	     -8.67527822	    -63.24643413	      2.49105888	      1.03433799	      7.43868775	    -10.61173417	     11.15207289	    -17.96911099	     35.56100294	     21.93485830	      5.18456736	      0.00000000	    -30.00000025	      2.71309011	      3.80742807	      3.17237078	     28.55354615	      7.32823441	      0.00000000	      2.39406868	     -2.57125305	     25.34336444	     10.89939027	    -11.66681457	     31.48961220	     86.54285429	    119.25895202	      1.24177317	      7.61543497	     27.75783298	     83.61723184	    118.99634931
      7.51666670	      4.38311825	     -8.22282620	    -63.33024887	      2.49017943	      1.03186883	      7.44315518	     -9.85739801	     11.74236671	    -18.80325517	     35.58471873	     19.69963949	      8.64035618	      0.00000000	    -30.00000025	      1.46932625	      4.72131954	      1.78769581	     27.94856553	      7.94847072	      0.00000000	      3.70151715	     -1.40674684	     25.42076813	      9.92439547	    -11.61887154	     31.08732870	     86.95610681	    119.21323255	      0.89508680	      7.42206290	     28.02405034	     83.68839633	    119.15733145
      7.53333330	      3.75516551	     -7.87167218	    -64.31184479	      2.48850941	      1.03104007	      7.44818219	     -9.75681792	     11.73145237	    -17.79784807	     35.41518161	     18.42510664	     12.01398316	      0.00000000	    -30.00000025	      1.46633429	      5.04052437	      1.26021308	     29.87177207	      7.02689401	      0.00000000	      4.62282980	     -0.78955741	     26.19499910	      8.98030286	    -11.45554811	     30.85214739	     87.34087964	    119.23920046	     -0.48139471	      6.81253970	     27.67615354	     84.43825830	    119.11920275
      7.55000000	      3.29447280	     -7.50471661	    -64.61118766	      2.48727851	      1.03048373	      7.45243067	     -9.80057375	     11.94073964	    -17.44026872	     34.51203672	     16.67236011	     14.14990908	      0.00000000	    -30.00000025	      1.22655776	      5.85287260	      0.66214632	     30.83733809	      6.73017741	      0.00000000	      5.41814832	     -0.53521077	     26.60756295	      8.26297771	    -11.32766018	     30.48912883	     87.95888099	    119.30747161	     -1.27307693	      6.24669754	     27.86088184	     85.07916999	    119.10476453
      7.56666670	      3.13075535	     -7.11544426	    -64.42726274	      2.48565666	      1.02997506	      7.45734991	    -10.04674702	     12.17440558	    -17.35301260	     33.15996251	     14.27268549	     15.77545550	      0.00000000	    -30.00000025	      0.87369611	      6.55889017	      0.25105962	     31.38823730	      6.79323072	      0.00000000	      6.04481534	     -0.86949794	     26.33524070	      7.48778287	    -10.48240042	     30.15397503	     88.76393881	    119.48340737	     -2.13245156	      5.20724951	     27.56261759	     86.21939987	    119.02462977
      7.58333330	      3.06845266	     -6.74157762	    -64.00613519	      2.48475233	      1.02892252	      7.46276498	    -10.35606280	     12.50762136	    -17.30363061	     31.70628213	     11.93628440	     16.32499645	      0.00000000	    -30.00000025	      0.53641189	      6.88635747	      0.00000000	     31.50598206	      6.81121973	      0.00000000	      6.66268835	     -1.34108386	     26.14243776	      6.60326740	    -10.21371744	     29.47472294	     90.01617438	    119.62501323	     -3.20396212	      3.92330275	     26.79884156	     87.79026803	    118.99877855
      7.60000000	      3.12291412	     -6.57222043	    -63.13019460	      2.48475012	      1.02852610	      7.46643163	    -11.01287826	     13.08765915	    -17.23490572	     29.74811808	      9.49646625	     15.91837833	      0.00000000	    -30.00000025	      0.05198827	      7.51061992	      0.00000000	     31.52429673	      7.29033658	      0.00000000	      6.86264928	     -1.86340607	     25.54635371	      5.66534636	    -10.09368310	     28.63100839	     90.99856389	    119.74817918	     -4.02791412	      2.96528335	     26.45400521	     89.11347828	    119.06082706
      7.61666670	      3.51971591	     -6.35618947	    -62.59097500	      2.48388888	      1.02824321	      7.46864378	    -11.35120021	     12.97709831	    -17.94343134	     28.83154128	      6.94011483	     15.26718618	      0.00000000	    -30.00000025	      0.19694881	      7.08537420	      0.00000000	     30.75791145	      7.53312269	      0.00000000	      6.73770932	     -2.68880747	     25.16391748	      5.16305196	    -10.12643438	     28.05505289	     91.79815908	    119.74817918	     -4.41294368	      1.92241349	     26.18441318	     90.46084829	    119.19463273
      7.63333330	      4.01997486	     -6.05478891	    -62.07326715	      2.48097583	      1.02755476	      7.47196691	    -11.89556796	     13.03745282	    -18.37554317	     27.29265874	      4.30919881	     15.14336240	      0.00000000	    -30.00000025	      0.27355795	      6.87443902	      0.00000000	     30.78109560	      8.29497004	      0.00000000	      6.53640724	     -4.13451278	     24.34758370	      4.89428795	     -9.41226028	     27.49194980	     91.76262038	    119.74817918	     -4.64688154	      0.37667430	     25.49594226	     91.60582010	    119.52460496
      7.65000000	      4.42025840	     -5.74585466	    -62.58227623	      2.47648563	      1.02718645	      7.47560795	    -12.44067954	     12.82946796	    -18.56436007	     25.94367491	      2.13022251	     15.92003631	      0.00000000	    -30.00000025	      0.75477403	      6.22010782	      0.00000000	     30.09795719	      7.97462454	      0.00000000	      6.56904870	     -5.25314650	     24.57176496	      4.77033083	     -8.77764388	     27.35466717	     91.68469045	    119.74817918	     -4.70706432	     -1.11798706	     24.79070158	     92.71799845	    119.64700556
      7.66666670	      5.00625130	     -5.49535643	    -63.11042623	      2.47143543	      1.02768633	      7.47904439	    -13.51479304	     12.74335972	    -18.32712133	     24.05251867	      0.56704102	     16.89901109	      0.00000000	    -30.00000025	      1.39056121	      5.73442326	      0.17387947	     29.23621017	      7.36898884	      0.00000000	      6.62791066	     -6.50345726	     24.97237296	      4.63784637	     -8.09156374	     27.50665364	     91.33710861	    119.74817918	     -4.65146150	     -2.73871201	     24.30701868	     93.60907056	    119.74817918
      7.68333330	      5.88878836	     -5.62848903	    -63.42533174	      2.46695120	      1.02834336	      7.48306214	    -15.59983808	     12.86150670	    -17.37336572	     21.28949114	      0.18240139	     18.19967772	      0.00000000	    -30.00000025	      2.06576605	      5.47236974	      1.46236074	     28.80339226	      6.20212428	      0.00000000	      6.04817056	     -7.82539028	     25.11920098	      4.77433821	     -7.06176808	     27.26309646	     90.47061638	    119.74817918	     -4.52915970	     -4.20236937	     23.44070044	     94.10278203	    119.74817918
